<svg xmlns="http://www.w3.org/2000/svg" width="480" height="500" viewBox="0 0 480 500"><rect width="100%" height="100%" fill="#DDDDDD"/><path fill="#999999" d="M103.905 255.695h14.08v-15.14q0-2.14.29-4.73zm20.96 0h5.83v4.58q0 .64-.42 1.1t-1.18.46h-4.23v11.3h-6.88v-11.3h-19.52q-.8 0-1.41-.49-.6-.5-.76-1.23l-.84-4 21.92-29.28h7.49zm26.02 11.78q1.95 0 3.42-.56t2.48-1.56q1.01-.99 1.52-2.36.51-1.38.51-2.98 0-3.81-2.11-5.76t-5.82-1.95-5.83 1.95q-2.11 1.95-2.11 5.76 0 1.6.51 2.98.52 1.37 1.52 2.36 1.01 1 2.48 1.56 1.48.56 3.43.56m0-35.17q-1.76 0-3.04.54-1.28.55-2.13 1.46t-1.25 2.09q-.4 1.19-.4 2.5 0 1.38.34 2.67.33 1.3 1.13 2.31.8 1 2.12 1.61 1.31.61 3.23.61t3.23-.61 2.11-1.61q.8-1.01 1.14-2.31.33-1.29.33-2.67 0-1.31-.41-2.5-.42-1.18-1.25-2.09t-2.11-1.46q-1.28-.54-3.04-.54m7.81 16.7q4.22 1.38 6.24 4.21 2.01 2.83 2.01 6.93 0 3.07-1.17 5.57-1.16 2.49-3.28 4.25-2.11 1.76-5.07 2.72t-6.54.96q-3.59 0-6.55-.96t-5.07-2.72-3.28-4.25q-1.17-2.5-1.17-5.57 0-4.1 2.02-6.93t6.24-4.21q-3.36-1.41-5.04-4t-1.68-6.24q0-2.62 1.07-4.89 1.07-2.28 2.99-3.96t4.6-2.62q2.67-.94 5.87-.94t5.87.94 4.59 2.62 2.99 3.96q1.08 2.27 1.08 4.89 0 3.65-1.68 6.24t-5.04 4m46.27.99q0 6.05-1.3 10.52-1.29 4.46-3.58 7.37t-5.41 4.34q-3.12 1.42-6.74 1.42-3.61 0-6.7-1.42-3.09-1.43-5.36-4.34t-3.55-7.37q-1.28-4.47-1.28-10.52 0-6.08 1.28-10.52 1.28-4.45 3.55-7.36 2.27-2.92 5.36-4.34t6.7-1.42q3.62 0 6.74 1.42t5.41 4.34q2.29 2.91 3.58 7.36 1.3 4.44 1.3 10.52m-8.16 0q0-5.02-.74-8.32-.73-3.29-1.97-5.24-1.23-1.96-2.83-2.74t-3.33-.78q-1.69 0-3.28.78-1.58.78-2.8 2.74-1.21 1.95-1.93 5.24-.72 3.3-.72 8.32 0 5.03.72 8.32.72 3.3 1.93 5.25 1.22 1.95 2.8 2.74 1.59.78 3.28.78 1.73 0 3.33-.78 1.6-.79 2.83-2.74 1.24-1.95 1.97-5.25.74-3.29.74-8.32m58.97 12.55-4.19 4.13-10.85-10.85-10.94 10.91-4.19-4.13 10.94-10.97-10.43-10.44 4.16-4.16 10.43 10.44 10.37-10.37 4.22 4.16-10.4 10.4zm33.64-28.51-1.64 9.63q1.54-.32 2.95-.47 1.41-.14 2.72-.14 3.65 0 6.43 1.09t4.67 3.01 2.85 4.49q.96 2.58.96 5.55 0 3.68-1.3 6.72-1.29 3.04-3.6 5.2-2.3 2.16-5.45 3.35-3.15 1.18-6.87 1.18-2.17 0-4.12-.45-1.96-.44-3.67-1.2-1.71-.75-3.17-1.72-1.45-.98-2.6-2.07l2.43-3.36q.77-1.09 2.01-1.09.8 0 1.64.52.83.51 1.9 1.12 1.07.6 2.53 1.12 1.45.51 3.5.51 2.18 0 3.84-.71 1.67-.7 2.77-1.96 1.1-1.27 1.66-3.01.56-1.75.56-3.79 0-3.78-2.19-5.91t-6.48-2.13q-3.29 0-6.75 1.22l-4.93-1.41 3.84-22.46h22.85v3.36q0 1.69-1.06 2.75-1.05 1.06-3.58 1.06zm58.01 15.96q0 6.05-1.29 10.52-1.3 4.46-3.59 7.37t-5.41 4.34q-3.12 1.42-6.73 1.42-3.62 0-6.71-1.42-3.08-1.43-5.36-4.34-2.27-2.91-3.55-7.37-1.28-4.47-1.28-10.52 0-6.08 1.28-10.52 1.28-4.45 3.55-7.36 2.28-2.92 5.36-4.34 3.09-1.42 6.71-1.42 3.61 0 6.73 1.42t5.41 4.34q2.29 2.91 3.59 7.36 1.29 4.44 1.29 10.52m-8.16 0q0-5.02-.73-8.32-.74-3.29-1.97-5.24-1.23-1.96-2.83-2.74t-3.33-.78q-1.7 0-3.28.78-1.59.78-2.8 2.74-1.22 1.95-1.94 5.24-.72 3.3-.72 8.32 0 5.03.72 8.32.72 3.3 1.94 5.25 1.21 1.95 2.8 2.74 1.58.78 3.28.78 1.73 0 3.33-.78 1.6-.79 2.83-2.74t1.97-5.25q.73-3.29.73-8.32m45.28 0q0 6.05-1.29 10.52-1.3 4.46-3.59 7.37t-5.41 4.34q-3.12 1.42-6.73 1.42-3.62 0-6.71-1.42-3.08-1.43-5.36-4.34-2.27-2.91-3.55-7.37-1.28-4.47-1.28-10.52 0-6.08 1.28-10.52 1.28-4.45 3.55-7.36 2.28-2.92 5.36-4.34 3.09-1.42 6.71-1.42 3.61 0 6.73 1.42t5.41 4.34q2.29 2.91 3.59 7.36 1.29 4.44 1.29 10.52m-8.16 0q0-5.02-.73-8.32-.74-3.29-1.97-5.24-1.23-1.96-2.83-2.74t-3.33-.78q-1.7 0-3.28.78-1.59.78-2.8 2.74-1.22 1.95-1.94 5.24-.72 3.3-.72 8.32 0 5.03.72 8.32.72 3.3 1.94 5.25 1.21 1.95 2.8 2.74 1.58.78 3.28.78 1.73 0 3.33-.78 1.6-.79 2.83-2.74t1.97-5.25q.73-3.29.73-8.32"/></svg>